<svg width="1024" height="683" viewBox="0 0 1024 683" fill="none" xmlns="http://www.w3.org/2000/svg">
<rect width="1024" height="683" fill="#EDEDED"/>
<path d="M485.744 335.167C490.577 335.167 494.494 331.249 494.494 326.417C494.494 321.585 490.577 317.667 485.744 317.667C480.912 317.667 476.994 321.585 476.994 326.417C476.994 331.249 480.912 335.167 485.744 335.167Z" fill="#BFBFBF"/>
<path d="M503.244 352.666L494.494 341L476.994 364.333H546.994L520.744 329.333L503.244 352.666Z" fill="#BFBFBF"/>
<path d="M558.661 294.333H465.327C458.893 294.333 453.661 299.566 453.661 306V376C453.661 382.434 458.893 387.666 465.327 387.666H558.661C565.095 387.666 570.327 382.434 570.327 376V306C570.327 299.566 565.095 294.333 558.661 294.333ZM465.327 376V306H558.661L558.672 376H465.327Z" fill="#BFBFBF"/>
</svg>
